<svg width="23" height="23" viewBox="0 0 23 23" fill="none" xmlns="http://www.w3.org/2000/svg">
<path d="M21.0064 11.1166C19.0706 6.622 15.4289 3.83325 11.4998 3.83325C7.57059 3.83325 3.92893 6.622 1.99309 11.1166C1.94032 11.2375 1.91309 11.368 1.91309 11.4999C1.91309 11.6318 1.94032 11.7623 1.99309 11.8833C3.92893 16.3778 7.57059 19.1666 11.4998 19.1666C15.4289 19.1666 19.0706 16.3778 21.0064 11.8833C21.0592 11.7623 21.0864 11.6318 21.0864 11.4999C21.0864 11.368 21.0592 11.2375 21.0064 11.1166ZM11.4998 17.2499C8.46184 17.2499 5.58684 15.0553 3.92893 11.4999C5.58684 7.9445 8.46184 5.74992 11.4998 5.74992C14.5377 5.74992 17.4127 7.9445 19.0706 11.4999C17.4127 15.0553 14.5377 17.2499 11.4998 17.2499ZM11.4998 7.66659C10.7416 7.66659 10.0005 7.89141 9.37007 8.31262C8.73968 8.73383 8.24836 9.33251 7.95822 10.033C7.66808 10.7334 7.59217 11.5042 7.74008 12.2478C7.88799 12.9914 8.25308 13.6744 8.78918 14.2105C9.32528 14.7466 10.0083 15.1117 10.7519 15.2596C11.4955 15.4075 12.2663 15.3316 12.9667 15.0415C13.6672 14.7513 14.2658 14.26 14.6871 13.6296C15.1083 12.9992 15.3331 12.2581 15.3331 11.4999C15.3331 10.4833 14.9292 9.50823 14.2103 8.78934C13.4914 8.07045 12.5164 7.66659 11.4998 7.66659ZM11.4998 13.4166C11.1207 13.4166 10.7501 13.3042 10.4349 13.0936C10.1197 12.883 9.87406 12.5836 9.72899 12.2334C9.58392 11.8832 9.54597 11.4978 9.61992 11.126C9.69387 10.7542 9.87642 10.4127 10.1445 10.1446C10.4125 9.87658 10.754 9.69404 11.1258 9.62008C11.4976 9.54612 11.883 9.58408 12.2332 9.72915C12.5835 9.87422 12.8828 10.1199 13.0934 10.4351C13.304 10.7503 13.4164 11.1208 13.4164 11.4999C13.4164 12.0083 13.2145 12.4958 12.855 12.8552C12.4956 13.2147 12.0081 13.4166 11.4998 13.4166Z" fill="#245750"/>
</svg>
